<svg version="1.1" id="Layer_1" xmlns="http://www.w3.org/2000/svg" xmlns:xlink="http://www.w3.org/1999/xlink" x="0px" y="0px"
	 width="100%" viewBox="0 0 2224 1920" enable-background="new 0 0 2224 1920" xml:space="preserve"><g style="isolation:isolate">
<path fill="black" style="mix-blend-mode:destination-out" opacity="1.000000" stroke="none"
	d="
M1853.859131,491.837067
	C1853.859131,491.837067 1853.599487,491.532074 1853.633667,490.134949 
	C1885.103149,444.686584 1893.054932,394.226318 1886.588013,338.877441 
	C1879.956909,349.858917 1874.803833,359.551117 1868.532715,368.455994 
	C1862.096924,377.594727 1854.568115,385.963898 1847.517578,394.669861 
	C1846.795532,394.399628 1846.073486,394.129395 1845.351562,393.859192 
	C1859.580688,340.891510 1858.105103,289.574554 1830.737549,238.947723 
	C1822.006470,287.490265 1814.251465,310.989777 1804.607544,320.572876 
	C1800.992798,305.318634 1798.142700,289.271301 1793.269897,273.863647 
	C1788.442017,258.597412 1780.412598,244.708832 1767.882812,231.158112 
	C1769.701294,258.226379 1766.736450,282.251526 1759.777466,305.763824 
	C1758.185425,311.142487 1755.686890,316.252808 1753.605469,321.486633 
	C1749.765015,306.983368 1745.870361,293.411163 1736.840454,281.178528 
	C1734.145020,292.265808 1732.081055,302.683868 1729.022827,312.801361 
	C1725.858643,323.270386 1721.729370,333.447754 1717.749634,344.510315 
	C1550.016357,175.086899 1348.173584,86.821136 1110.454712,86.741180 
	C872.440979,86.661133 670.041443,174.361038 501.923370,344.399048 
	C497.934723,333.720093 493.707397,323.954346 490.668549,313.831848 
	C487.595184,303.594391 485.698578,293.003662 483.045776,281.526276 
	C473.337250,294.431793 469.501404,308.436157 466.465942,322.987335 
	C454.229034,293.962433 450.411774,263.771667 451.908905,230.548355 
	C428.021606,258.356201 418.813782,289.239502 415.633942,324.579071 
	C399.960815,297.233826 392.084137,269.878204 389.072479,240.705978 
	C361.383087,289.422180 360.427856,340.874237 373.747925,393.969360 
	C356.755341,378.385284 344.358490,360.017578 333.777588,340.134003 
	C329.860565,362.632660 329.501190,384.766876 332.970581,406.899017 
	C337.520996,435.927551 347.975555,462.708710 363.919678,487.381470 
	C365.010559,489.069580 365.446869,491.180695 366.787354,494.645203 
	C350.519989,487.718201 338.251526,478.044769 325.849243,468.052856 
	C326.170807,475.239014 326.875488,481.859985 328.504028,488.245300 
	C334.218933,510.652374 342.962708,531.780518 356.564697,550.462280 
	C355.766296,552.218750 355.269196,553.438660 354.672241,554.607605 
	C327.943756,606.944763 306.969971,661.505371 291.202026,718.106628 
	C275.870117,773.142456 266.207031,829.156616 262.152740,886.115601 
	C261.729645,892.059631 259.622284,895.991028 255.183380,899.489563 
	C236.821472,913.961182 222.771240,932.185974 212.046692,952.672119 
	C182.437576,1009.231689 173.136993,1069.007690 185.964432,1131.809448 
	C194.508408,1173.639648 211.304977,1211.659546 239.611588,1244.059326 
	C260.754456,1268.259521 286.479004,1285.378784 317.973297,1292.983521 
	C325.567535,1294.817383 333.434967,1295.519775 342.319702,1296.922852 
	C342.319702,1292.064575 342.319946,1288.815308 342.319672,1285.565918 
	C342.309875,1160.567261 342.539276,1035.567749 342.147369,910.570251 
	C342.026428,871.998901 347.277466,834.101196 354.879822,796.589050 
	C370.108063,721.448730 395.874603,649.980225 432.298279,582.350220 
	C483.231903,487.778564 550.269714,406.645172 634.210876,339.700775 
	C740.653320,254.811249 861.268433,201.978333 995.975098,181.533447 
	C1075.008789,169.538239 1154.061035,169.490158 1232.893188,182.588013 
	C1335.672852,199.664688 1431.153564,236.266754 1519.082764,292.290863 
	C1616.479004,354.346893 1695.801025,434.588196 1757.656250,531.883301 
	C1811.620605,616.766235 1848.412476,708.688477 1866.686157,807.792358 
	C1872.187012,837.625305 1876.554932,867.563538 1876.531982,898.038574 
	C1876.434692,1027.036987 1876.517090,1156.035400 1876.551025,1285.033813 
	C1876.552002,1288.544067 1876.749146,1292.054443 1876.875854,1296.265747 
	C1882.702881,1295.786987 1887.355591,1295.697876 1891.910645,1294.984253 
	C1927.782349,1289.363159 1956.407104,1270.895996 1980.171021,1244.298706 
	C1999.946167,1222.165771 2014.209595,1196.606445 2023.934937,1168.695068 
	C2041.593506,1118.015869 2044.229248,1066.409424 2031.299927,1014.244019 
	C2019.910645,968.293213 1999.792358,927.346680 1962.058472,896.885437 
	C1959.252808,894.620483 1958.272461,891.948181 1957.937256,888.363220 
	C1956.233398,870.138000 1954.689575,851.875366 1952.178589,833.752075 
	C1942.221436,761.889099 1924.101562,692.122803 1896.574341,624.957642 
	C1886.365723,600.048828 1874.823730,575.686523 1863.515747,550.233215 
	C1879.889526,526.164612 1891.545532,499.127045 1894.620605,466.572937 
	C1890.867554,469.801788 1888.763062,471.747070 1886.520996,473.517975 
	C1876.645020,481.317993 1867.042725,489.613281 1853.859131,491.837067 
M1184.465576,473.037323 
	C1184.465576,473.037323 1184.509033,473.190521 1182.881470,472.195221 
	C1184.633667,467.189728 1185.981567,461.995789 1188.210815,457.212677 
	C1196.169556,440.137207 1206.824341,424.940338 1220.721191,412.102661 
	C1223.952515,409.117615 1227.041504,405.978729 1231.616211,401.529358 
	C1202.199707,401.648621 1176.347778,406.811432 1151.673584,417.757172 
	C1126.897949,428.747955 1105.285400,444.333038 1085.788818,465.211456 
	C1084.367310,441.834137 1091.836670,422.320312 1099.410278,400.638275 
	C1079.407227,408.033173 1064.718628,419.083862 1051.447021,432.235016 
	C1037.933472,445.626129 1028.351685,461.718231 1020.870728,479.369324 
	C986.794373,450.725067 947.890991,441.555176 904.941223,445.063232 
	C921.275696,457.490845 936.376770,470.634674 945.963379,491.038757 
	C910.364380,482.356659 875.890686,481.318909 841.394592,486.357391 
	C806.629211,491.435120 773.868042,502.240997 743.272583,524.690308 
	C765.916077,526.659119 786.169312,529.357666 806.492859,539.350769 
	C777.873718,544.386902 752.493408,553.952881 727.542664,564.708130 
	C723.244690,566.560791 719.947205,565.651245 716.239685,563.860413 
	C687.814941,550.130798 663.725586,531.018494 645.175842,505.423676 
	C636.286194,493.157867 628.476562,480.109253 619.939087,467.049896 
	C616.585510,481.045471 617.007019,495.191559 617.758911,510.927551 
	C596.613831,490.899628 581.397400,468.616638 566.626892,444.773193 
	C507.141602,512.221619 459.290619,585.133667 426.556183,667.730774 
	C440.830109,679.065125 456.553040,685.738953 473.795166,692.299622 
	C457.722809,699.786865 442.350952,701.369812 425.145935,702.803833 
	C437.038757,712.703064 448.565796,719.408875 461.343750,723.085083 
	C474.063385,726.744568 487.279816,728.677124 502.519440,731.830627 
	C491.169922,737.692200 481.476135,742.698669 471.288605,747.960083 
	C483.025970,753.844604 495.270630,756.413391 507.761658,758.476685 
	C520.587646,760.595276 533.158630,758.965759 548.163391,755.941589 
	C520.439758,787.742676 500.967407,821.935730 483.606415,859.708496 
	C482.273102,855.090942 481.632599,852.682739 480.883820,850.308716 
	C473.510315,826.931458 457.281799,813.698975 433.373291,810.327148 
	C410.385010,807.084961 388.704834,818.593506 377.279877,838.973083 
	C371.742279,848.850891 370.053314,859.516235 370.059113,870.717407 
	C370.130157,1008.045227 370.106934,1145.373047 370.111023,1282.700928 
	C370.111084,1285.033936 370.087921,1287.369263 370.175781,1289.699707 
	C371.130066,1315.004028 388.183472,1337.249390 411.678314,1343.933472 
	C439.208435,1351.765747 464.644531,1338.859985 475.463715,1318.921509 
	C475.852356,1318.205322 476.539246,1317.651001 478.159515,1315.788574 
	C478.159515,1320.104370 478.228455,1322.933960 478.149200,1325.759277 
	C476.946136,1368.634644 481.320923,1410.892456 492.040497,1452.463623 
	C503.006165,1494.989136 518.946960,1535.329834 544.208618,1571.585693 
	C546.171936,1574.403442 548.397034,1577.038818 551.319702,1580.818481 
	C554.008728,1555.401367 560.459534,1533.194702 572.161865,1510.355713 
	C573.992798,1515.613403 575.093750,1518.663940 576.120300,1521.739258 
	C588.551453,1558.982300 605.828552,1593.705200 630.016357,1624.781494 
	C656.326782,1658.585083 687.365173,1686.880737 725.921265,1706.291382 
	C728.917480,1707.799805 732.071838,1708.994019 736.171265,1710.777466 
	C730.038574,1685.096191 726.181885,1661.002075 732.096191,1634.540283 
	C786.891541,1712.854492 859.352295,1763.478760 951.057922,1790.144897 
	C942.010498,1766.753662 935.253845,1744.808105 937.965393,1720.632446 
	C940.517151,1722.065186 941.914673,1724.223022 943.528992,1726.204224 
	C981.769226,1773.132935 1029.808838,1807.096924 1084.518066,1832.003052 
	C1110.129028,1843.662476 1110.362671,1843.400635 1135.659546,1831.712891 
	C1190.854492,1806.211670 1239.469604,1772.007080 1277.509521,1723.901245 
	C1278.563721,1722.568237 1280.017212,1721.551147 1281.867676,1719.851074 
	C1284.820068,1744.752930 1277.144409,1766.665527 1268.839233,1789.691650 
	C1300.044067,1781.400635 1327.786499,1769.712646 1354.431519,1755.291260 
	C1380.910522,1740.960205 1405.280884,1723.661133 1427.703491,1703.552368 
	C1450.165894,1683.407837 1469.380615,1660.391602 1487.540039,1634.433838 
	C1493.350830,1661.247559 1489.454712,1685.602417 1483.642212,1711.885010 
	C1568.870850,1668.614258 1618.813354,1599.775024 1647.114868,1511.962646 
	C1659.949097,1533.267456 1665.788452,1555.776978 1668.185913,1581.409424 
	C1697.802490,1542.447876 1714.873535,1499.993164 1726.846436,1455.038818 
	C1738.786621,1410.206543 1742.475586,1364.494751 1742.256348,1318.122192 
	C1744.213257,1319.618530 1745.157227,1321.254883 1746.272827,1322.764282 
	C1760.068848,1341.430664 1783.380249,1350.005249 1805.477661,1344.572754 
	C1832.175415,1338.009277 1849.443726,1316.010620 1849.644775,1287.693970 
	C1849.838867,1260.363281 1849.623169,1233.029907 1849.617188,1205.697632 
	C1849.592529,1092.702148 1849.667725,979.706543 1849.500488,866.711243 
	C1849.457764,837.880371 1830.414917,815.467834 1802.322876,810.591003 
	C1779.973389,806.711121 1750.766602,817.098816 1739.896362,847.654724 
	C1738.859131,850.570251 1737.844238,853.493713 1736.495239,857.335510 
	C1726.657715,839.391663 1718.046265,822.194336 1708.039551,805.851257 
	C1698.037598,789.515869 1686.639526,774.035278 1675.060059,757.013794 
	C1701.072754,762.275879 1725.056030,758.765991 1750.184692,747.978333 
	C1737.741089,743.031067 1726.667725,740.002991 1718.763306,730.059204 
	C1746.845703,728.644531 1772.004639,722.096069 1794.457520,702.557007 
	C1777.234375,701.547729 1761.987305,699.564880 1746.132324,692.078796 
	C1764.440308,685.697205 1780.236816,679.027222 1793.478638,667.889221 
	C1761.937012,587.791809 1704.560547,498.972046 1652.285278,445.361908 
	C1638.793579,469.518280 1621.963135,490.923035 1601.705322,512.615234 
	C1603.246704,495.860779 1603.213257,481.722443 1599.100342,465.895538 
	C1595.591309,472.165802 1592.871826,476.972687 1590.200806,481.806427 
	C1570.624512,517.233459 1542.849609,544.108093 1506.776733,562.573486 
	C1500.274902,565.901733 1494.879272,566.134766 1488.111328,563.107605 
	C1467.107910,553.713379 1445.342407,546.427002 1422.625122,542.269348 
	C1420.950439,541.962830 1419.324341,541.391541 1415.481689,540.346924 
	C1435.864624,530.426086 1455.319580,526.424133 1475.515015,525.085449 
	C1475.127197,523.720520 1475.150513,522.883667 1474.762329,522.589233 
	C1472.641724,520.980896 1470.471191,519.425293 1468.224731,517.998047 
	C1452.946289,508.291077 1436.577881,501.005035 1419.179321,496.021210 
	C1377.553223,484.097473 1335.620239,484.991882 1293.505859,492.954651 
	C1290.560791,493.511475 1287.552246,493.732025 1283.290527,494.271240 
	C1298.646606,472.799530 1319.560303,462.267853 1341.914307,452.996155 
	C1312.216309,438.656616 1237.937866,436.524902 1184.465576,473.037323 
M2072.987305,558.129272 
	C2081.817383,575.645996 2091.699951,592.719910 2099.289795,610.758362 
	C2127.662354,678.190552 2135.897217,748.609131 2128.505859,821.110962 
	C2128.135010,824.749207 2127.749756,828.438232 2127.948730,832.071899 
	C2128.421875,840.706665 2135.299072,847.297791 2144.208496,848.066711 
	C2152.977539,848.823547 2159.847412,844.166199 2162.084961,835.527954 
	C2163.082275,831.678284 2163.564697,827.663879 2163.950195,823.692200 
	C2168.024170,781.739746 2167.208740,740.046631 2160.479492,698.257141 
	C2146.814941,613.397217 2110.675049,539.463623 2054.916260,474.650635 
	C2052.771973,472.158295 2050.207764,469.873108 2047.450684,468.093262 
	C2040.798584,463.799408 2031.786133,464.842102 2026.247803,470.164673 
	C2020.868652,475.334412 2019.434814,483.508301 2022.928833,490.400452 
	C2023.967651,492.449524 2025.430664,494.355896 2026.995483,496.054932 
	C2044.211304,514.747925 2058.871338,535.330200 2072.987305,558.129272 
M120.485535,609.684814 
	C130.638718,590.235718 139.514557,569.969482 151.291489,551.559082 
	C163.975037,531.731384 179.019501,513.356384 193.766144,494.933777 
	C199.800003,487.395782 199.961655,475.525940 193.122360,469.754822 
	C185.802383,463.578003 175.437088,464.101349 167.972687,471.571472 
	C164.449997,475.096924 161.252090,478.961639 158.057648,482.798065 
	C115.960503,533.355408 85.332130,589.876587 68.514503,653.731812 
	C55.075176,704.759827 50.145966,756.488586 54.478764,809.064636 
	C55.187710,817.667419 56.311882,826.301636 58.133663,834.729004 
	C60.081009,843.737244 67.923622,848.849426 76.654823,847.926331 
	C85.983818,846.940002 92.241058,840.068726 92.015091,830.282471 
	C91.877495,824.323608 90.873528,818.382019 90.205223,812.438721 
	C86.612587,780.488586 87.802727,748.632507 91.816864,716.800598 
	C96.420937,680.290405 105.661270,645.040283 120.485535,609.684814 
M161.905640,692.913696 
	C155.630341,718.617004 153.144821,744.750549 153.181641,771.150940 
	C153.186218,774.436890 153.445511,777.885498 154.454910,780.975098 
	C156.985657,788.721191 165.030182,793.171082 173.574951,792.068726 
	C181.606201,791.032593 187.233246,785.040283 187.842255,776.618530 
	C188.082001,773.303040 187.860367,769.956848 187.936279,766.626587 
	C189.273087,707.979370 204.347168,653.631348 238.453491,605.237000 
	C239.985291,603.063416 241.574875,600.884277 242.753693,598.516663 
	C246.758835,590.472290 244.463989,581.414307 237.311478,576.337036 
	C230.352448,571.397095 220.824738,572.488708 214.747528,579.139343 
	C212.512009,581.585754 210.613510,584.361328 208.722275,587.097961 
	C186.728165,618.923706 171.085175,653.594177 161.905640,692.913696 
M2066.636475,766.780212 
	C2066.023438,720.608398 2057.733643,675.971436 2037.638916,634.214050 
	C2029.018188,616.300110 2017.979370,599.539307 2007.831177,582.377563 
	C2004.868774,577.367737 2000.655273,573.637573 1994.322754,573.232849 
	C1986.984619,572.763794 1981.199951,575.434692 1977.528320,581.821106 
	C1973.186035,589.374329 1974.864868,596.252441 1979.817627,603.137573 
	C2015.436890,652.655457 2031.398560,708.394287 2031.870239,768.976562 
	C2031.896118,772.295410 2031.753906,775.709717 2032.457642,778.910950 
	C2034.299683,787.289917 2042.181152,792.689514 2051.134521,792.157715 
	C2059.701904,791.648804 2065.448242,785.845276 2066.321777,776.680786 
	C2066.574463,774.032471 2066.540039,771.356934 2066.636475,766.780212 
z"/>
<path fill="#010101" opacity="1.000000" stroke="none" 
	d="
M1184.452148,472.878723 
	C1237.937866,436.524902 1312.216309,438.656616 1341.914307,452.996155 
	C1319.560303,462.267853 1298.646606,472.799530 1283.290527,494.271240 
	C1287.552246,493.732025 1290.560791,493.511475 1293.505859,492.954651 
	C1335.620239,484.991882 1377.553223,484.097473 1419.179321,496.021210 
	C1436.577881,501.005035 1452.946289,508.291077 1468.224731,517.998047 
	C1470.471191,519.425293 1472.641724,520.980896 1474.762329,522.589233 
	C1475.150513,522.883667 1475.127197,523.720520 1475.515015,525.085449 
	C1455.319580,526.424133 1435.864624,530.426086 1415.481689,540.346924 
	C1419.324341,541.391541 1420.950439,541.962830 1422.625122,542.269348 
	C1445.342407,546.427002 1467.107910,553.713379 1488.111328,563.107605 
	C1494.879272,566.134766 1500.274902,565.901733 1506.776733,562.573486 
	C1542.849609,544.108093 1570.624512,517.233459 1590.200806,481.806427 
	C1592.871826,476.972687 1595.591309,472.165802 1599.100342,465.895538 
	C1603.213257,481.722443 1603.246704,495.860779 1601.705322,512.615234 
	C1621.963135,490.923035 1638.793579,469.518280 1652.285278,445.361908 
	C1704.560547,498.972046 1761.937012,587.791809 1793.478638,667.889221 
	C1780.236816,679.027222 1764.440308,685.697205 1746.132324,692.078796 
	C1761.987305,699.564880 1777.234375,701.547729 1794.457520,702.557007 
	C1772.004639,722.096069 1746.845703,728.644531 1718.763306,730.059204 
	C1726.667725,740.002991 1737.741089,743.031067 1750.184692,747.978333 
	C1725.056030,758.765991 1701.072754,762.275879 1675.060059,757.013794 
	C1686.639526,774.035278 1698.037598,789.515869 1708.039551,805.851257 
	C1718.046265,822.194336 1726.657715,839.391663 1736.495239,857.335510 
	C1737.844238,853.493713 1738.859131,850.570251 1739.896362,847.654724 
	C1750.766602,817.098816 1779.973389,806.711121 1802.322876,810.591003 
	C1830.414917,815.467834 1849.457764,837.880371 1849.500488,866.711243 
	C1849.667725,979.706543 1849.592529,1092.702148 1849.617188,1205.697632 
	C1849.623169,1233.029907 1849.838867,1260.363281 1849.644775,1287.693970 
	C1849.443726,1316.010620 1832.175415,1338.009277 1805.477661,1344.572754 
	C1783.380249,1350.005249 1760.068848,1341.430664 1746.272827,1322.764282 
	C1745.157227,1321.254883 1744.213257,1319.618530 1742.256348,1318.122192 
	C1742.475586,1364.494751 1738.786621,1410.206543 1726.846436,1455.038818 
	C1714.873535,1499.993164 1697.802490,1542.447876 1668.185913,1581.409424 
	C1665.788452,1555.776978 1659.949097,1533.267456 1647.114868,1511.962646 
	C1618.813354,1599.775024 1568.870850,1668.614258 1483.642212,1711.885010 
	C1489.454712,1685.602417 1493.350830,1661.247559 1487.540039,1634.433838 
	C1469.380615,1660.391602 1450.165894,1683.407837 1427.703491,1703.552368 
	C1405.280884,1723.661133 1380.910522,1740.960205 1354.431519,1755.291260 
	C1327.786499,1769.712646 1300.044067,1781.400635 1268.839233,1789.691650 
	C1277.144409,1766.665527 1284.820068,1744.752930 1281.867676,1719.851074 
	C1280.017212,1721.551147 1278.563721,1722.568237 1277.509521,1723.901245 
	C1239.469604,1772.007080 1190.854492,1806.211670 1135.659546,1831.712891 
	C1110.362671,1843.400635 1110.129028,1843.662476 1084.518066,1832.003052 
	C1029.808838,1807.096924 981.769226,1773.132935 943.528992,1726.204224 
	C941.914673,1724.223022 940.517151,1722.065186 937.965393,1720.632446 
	C935.253845,1744.808105 942.010498,1766.753662 951.057922,1790.144897 
	C859.352295,1763.478760 786.891541,1712.854492 732.096191,1634.540283 
	C726.181885,1661.002075 730.038574,1685.096191 736.171265,1710.777466 
	C732.071838,1708.994019 728.917480,1707.799805 725.921265,1706.291382 
	C687.365173,1686.880737 656.326782,1658.585083 630.016357,1624.781494 
	C605.828552,1593.705200 588.551453,1558.982300 576.120300,1521.739258 
	C575.093750,1518.663940 573.992798,1515.613403 572.161865,1510.355713 
	C560.459534,1533.194702 554.008728,1555.401367 551.319702,1580.818481 
	C548.397034,1577.038818 546.171936,1574.403442 544.208618,1571.585693 
	C518.946960,1535.329834 503.006165,1494.989136 492.040497,1452.463623 
	C481.320923,1410.892456 476.946136,1368.634644 478.149200,1325.759277 
	C478.228455,1322.933960 478.159515,1320.104370 478.159515,1315.788574 
	C476.539246,1317.651001 475.852356,1318.205322 475.463715,1318.921509 
	C464.644531,1338.859985 439.208435,1351.765747 411.678314,1343.933472 
	C388.183472,1337.249390 371.130066,1315.004028 370.175781,1289.699707 
	C370.087921,1287.369263 370.111084,1285.033936 370.111023,1282.700928 
	C370.106934,1145.373047 370.130157,1008.045227 370.059113,870.717407 
	C370.053314,859.516235 371.742279,848.850891 377.279877,838.973083 
	C388.704834,818.593506 410.385010,807.084961 433.373291,810.327148 
	C457.281799,813.698975 473.510315,826.931458 480.883820,850.308716 
	C481.632599,852.682739 482.273102,855.090942 483.606415,859.708496 
	C500.967407,821.935730 520.439758,787.742676 548.163391,755.941589 
	C533.158630,758.965759 520.587646,760.595276 507.761658,758.476685 
	C495.270630,756.413391 483.025970,753.844604 471.288605,747.960083 
	C481.476135,742.698669 491.169922,737.692200 502.519440,731.830627 
	C487.279816,728.677124 474.063385,726.744568 461.343750,723.085083 
	C448.565796,719.408875 437.038757,712.703064 425.145935,702.803833 
	C442.350952,701.369812 457.722809,699.786865 473.795166,692.299622 
	C456.553040,685.738953 440.830109,679.065125 426.556183,667.730774 
	C459.290619,585.133667 507.141602,512.221619 566.626892,444.773193 
	C581.397400,468.616638 596.613831,490.899628 617.758911,510.927551 
	C617.007019,495.191559 616.585510,481.045471 619.939087,467.049896 
	C628.476562,480.109253 636.286194,493.157867 645.175842,505.423676 
	C663.725586,531.018494 687.814941,550.130798 716.239685,563.860413 
	C719.947205,565.651245 723.244690,566.560791 727.542664,564.708130 
	C752.493408,553.952881 777.873718,544.386902 806.492859,539.350769 
	C786.169312,529.357666 765.916077,526.659119 743.272583,524.690308 
	C773.868042,502.240997 806.629211,491.435120 841.394592,486.357391 
	C875.890686,481.318909 910.364380,482.356659 945.963379,491.038757 
	C936.376770,470.634674 921.275696,457.490845 904.941223,445.063232 
	C947.890991,441.555176 986.794373,450.725067 1020.870728,479.369324 
	C1028.351685,461.718231 1037.933472,445.626129 1051.447021,432.235016 
	C1064.718628,419.083862 1079.407227,408.033173 1099.410278,400.638275 
	C1091.836670,422.320312 1084.367310,441.834137 1085.788818,465.211456 
	C1105.285400,444.333038 1126.897949,428.747955 1151.673584,417.757172 
	C1176.347778,406.811432 1202.199707,401.648621 1231.616211,401.529358 
	C1227.041504,405.978729 1223.952515,409.117615 1220.721191,412.102661 
	C1206.824341,424.940338 1196.169556,440.137207 1188.210815,457.212677 
	C1185.981567,461.995789 1184.633667,467.189728 1183.547974,472.033051 
	C1183.741699,471.967285 1183.269043,472.063690 1182.796265,472.160095 
	C1183.348267,472.399658 1183.900146,472.639191 1184.452148,472.878723 
M1335.117188,867.971069 
	C1332.363770,869.145386 1329.606567,870.310669 1326.857666,871.495300 
	C1255.142944,902.399414 1210.559204,976.796265 1223.833008,1058.932007 
	C1238.583008,1150.203613 1326.455200,1219.554199 1423.664185,1202.450562 
	C1522.915771,1184.987549 1588.074097,1083.838013 1561.809570,986.957092 
	C1535.019287,888.136841 1432.569702,833.806152 1335.117188,867.971069 
M871.024780,863.839355 
	C842.519897,855.900574 813.798828,855.302917 785.069458,862.125427 
	C712.615417,879.331543 657.926392,942.868530 652.309509,1016.743103 
	C648.648987,1064.886597 663.074463,1107.389893 694.294067,1144.161377 
	C756.471802,1217.396240 863.453979,1225.755737 936.480957,1163.144043 
	C1002.528015,1106.516846 1016.787537,1009.856445 969.704102,936.819458 
	C946.374146,900.629517 913.429504,877.091248 871.024780,863.839355 
M1045.321533,1334.299683 
	C1025.316406,1335.250977 1004.748047,1349.482178 1001.767517,1371.620239 
	C1073.957520,1388.975952 1146.042114,1389.709473 1220.223267,1371.472778 
	C1215.886841,1363.637573 1213.185181,1356.704956 1208.759521,1351.144409 
	C1195.557495,1334.556641 1172.974365,1329.868042 1152.687378,1339.072754 
	C1145.136475,1342.498779 1138.012695,1346.854614 1130.604614,1350.609741 
	C1117.225586,1357.391602 1103.634155,1357.144043 1090.179932,1350.999634 
	C1084.452515,1348.384155 1079.024292,1345.087769 1073.560059,1341.927734 
	C1065.335815,1337.171753 1056.611206,1334.300171 1045.321533,1334.299683 
M1285.987549,1269.092773 
	C1284.031250,1272.566772 1281.738525,1275.896484 1280.175903,1279.539307 
	C1272.777222,1296.786499 1268.465820,1314.913452 1266.326050,1333.472534 
	C1265.402710,1341.480225 1266.171265,1349.682861 1266.171265,1358.427368 
	C1294.269409,1348.332520 1320.745605,1336.488281 1347.582275,1322.065552 
	C1337.029663,1311.004639 1327.637451,1300.725708 1317.756104,1290.940796 
	C1309.956543,1283.217285 1301.597778,1276.053223 1293.387939,1268.752686 
	C1291.556274,1267.123779 1289.483765,1264.470459 1285.987549,1269.092773 
M925.959229,1268.733032 
	C907.293152,1285.206055 889.356567,1302.410400 872.240234,1321.817017 
	C898.884827,1335.772705 925.293030,1348.599365 954.412598,1358.868896 
	C952.882019,1325.228760 948.856934,1293.770508 931.434082,1264.927002 
	C929.283752,1266.384155 928.202332,1267.117065 925.959229,1268.733032 
z"/>
<path fill="#020202" opacity="1.000000" stroke="none" 
	d="
M1854.128784,492.133179 
	C1867.042725,489.613281 1876.645020,481.317993 1886.520996,473.517975 
	C1888.763062,471.747070 1890.867554,469.801788 1894.620605,466.572937 
	C1891.545532,499.127045 1879.889526,526.164612 1863.515747,550.233215 
	C1874.823730,575.686523 1886.365723,600.048828 1896.574341,624.957642 
	C1924.101562,692.122803 1942.221436,761.889099 1952.178589,833.752075 
	C1954.689575,851.875366 1956.233398,870.138000 1957.937256,888.363220 
	C1958.272461,891.948181 1959.252808,894.620483 1962.058472,896.885437 
	C1999.792358,927.346680 2019.910645,968.293213 2031.299927,1014.244019 
	C2044.229248,1066.409424 2041.593506,1118.015869 2023.934937,1168.695068 
	C2014.209595,1196.606445 1999.946167,1222.165771 1980.171021,1244.298706 
	C1956.407104,1270.895996 1927.782349,1289.363159 1891.910645,1294.984253 
	C1887.355591,1295.697876 1882.702881,1295.786987 1876.875854,1296.265747 
	C1876.749146,1292.054443 1876.552002,1288.544067 1876.551025,1285.033813 
	C1876.517090,1156.035400 1876.434692,1027.036987 1876.531982,898.038574 
	C1876.554932,867.563538 1872.187012,837.625305 1866.686157,807.792358 
	C1848.412476,708.688477 1811.620605,616.766235 1757.656250,531.883301 
	C1695.801025,434.588196 1616.479004,354.346893 1519.082764,292.290863 
	C1431.153564,236.266754 1335.672852,199.664688 1232.893188,182.588013 
	C1154.061035,169.490158 1075.008789,169.538239 995.975098,181.533447 
	C861.268433,201.978333 740.653320,254.811249 634.210876,339.700775 
	C550.269714,406.645172 483.231903,487.778564 432.298279,582.350220 
	C395.874603,649.980225 370.108063,721.448730 354.879822,796.589050 
	C347.277466,834.101196 342.026428,871.998901 342.147369,910.570251 
	C342.539276,1035.567749 342.309875,1160.567261 342.319672,1285.565918 
	C342.319946,1288.815308 342.319702,1292.064575 342.319702,1296.922852 
	C333.434967,1295.519775 325.567535,1294.817383 317.973297,1292.983521 
	C286.479004,1285.378784 260.754456,1268.259521 239.611588,1244.059326 
	C211.304977,1211.659546 194.508408,1173.639648 185.964432,1131.809448 
	C173.136993,1069.007690 182.437576,1009.231689 212.046692,952.672119 
	C222.771240,932.185974 236.821472,913.961182 255.183380,899.489563 
	C259.622284,895.991028 261.729645,892.059631 262.152740,886.115601 
	C266.207031,829.156616 275.870117,773.142456 291.202026,718.106628 
	C306.969971,661.505371 327.943756,606.944763 354.672241,554.607605 
	C355.269196,553.438660 355.766296,552.218750 356.564697,550.462280 
	C342.962708,531.780518 334.218933,510.652374 328.504028,488.245300 
	C326.875488,481.859985 326.170807,475.239014 325.849243,468.052856 
	C338.251526,478.044769 350.519989,487.718201 366.787354,494.645203 
	C365.446869,491.180695 365.010559,489.069580 363.919678,487.381470 
	C347.975555,462.708710 337.520996,435.927551 332.970581,406.899017 
	C329.501190,384.766876 329.860565,362.632660 333.777588,340.134003 
	C344.358490,360.017578 356.755341,378.385284 373.747925,393.969360 
	C360.427856,340.874237 361.383087,289.422180 389.072479,240.705978 
	C392.084137,269.878204 399.960815,297.233826 415.633942,324.579071 
	C418.813782,289.239502 428.021606,258.356201 451.908905,230.548355 
	C450.411774,263.771667 454.229034,293.962433 466.465942,322.987335 
	C469.501404,308.436157 473.337250,294.431793 483.045776,281.526276 
	C485.698578,293.003662 487.595184,303.594391 490.668549,313.831848 
	C493.707397,323.954346 497.934723,333.720093 501.923370,344.399048 
	C670.041443,174.361038 872.440979,86.661133 1110.454712,86.741180 
	C1348.173584,86.821136 1550.016357,175.086899 1717.749634,344.510315 
	C1721.729370,333.447754 1725.858643,323.270386 1729.022827,312.801361 
	C1732.081055,302.683868 1734.145020,292.265808 1736.840454,281.178528 
	C1745.870361,293.411163 1749.765015,306.983368 1753.605469,321.486633 
	C1755.686890,316.252808 1758.185425,311.142487 1759.777466,305.763824 
	C1766.736450,282.251526 1769.701294,258.226379 1767.882812,231.158112 
	C1780.412598,244.708832 1788.442017,258.597412 1793.269897,273.863647 
	C1798.142700,289.271301 1800.992798,305.318634 1804.607544,320.572876 
	C1814.251465,310.989777 1822.006470,287.490265 1830.737549,238.947723 
	C1858.105103,289.574554 1859.580688,340.891510 1845.351562,393.859192 
	C1846.073486,394.129395 1846.795532,394.399628 1847.517578,394.669861 
	C1854.568115,385.963898 1862.096924,377.594727 1868.532715,368.455994 
	C1874.803833,359.551117 1879.956909,349.858917 1886.588013,338.877441 
	C1893.054932,394.226318 1885.103149,444.686584 1853.131592,490.979980 
	C1852.664917,492.293030 1852.700439,492.761017 1852.735962,493.229065 
	C1853.200317,492.863800 1853.664551,492.498505 1854.128784,492.133179 
z"/>
<path fill="#050505" opacity="1.000000" stroke="none" 
	d="
M2072.585938,557.522705 
	C2058.871338,535.330200 2044.211304,514.747925 2026.995483,496.054932 
	C2025.430664,494.355896 2023.967651,492.449524 2022.928833,490.400452 
	C2019.434814,483.508301 2020.868652,475.334412 2026.247803,470.164673 
	C2031.786133,464.842102 2040.798584,463.799408 2047.450684,468.093262 
	C2050.207764,469.873108 2052.771973,472.158295 2054.916260,474.650635 
	C2110.675049,539.463623 2146.814941,613.397217 2160.479492,698.257141 
	C2167.208740,740.046631 2168.024170,781.739746 2163.950195,823.692200 
	C2163.564697,827.663879 2163.082275,831.678284 2162.084961,835.527954 
	C2159.847412,844.166199 2152.977539,848.823547 2144.208496,848.066711 
	C2135.299072,847.297791 2128.421875,840.706665 2127.948730,832.071899 
	C2127.749756,828.438232 2128.135010,824.749207 2128.505859,821.110962 
	C2135.897217,748.609131 2127.662354,678.190552 2099.289795,610.758362 
	C2091.699951,592.719910 2081.817383,575.645996 2072.585938,557.522705 
z"/>
<path fill="#050505" opacity="1.000000" stroke="none" 
	d="
M120.222473,610.404602 
	C105.661270,645.040283 96.420937,680.290405 91.816864,716.800598 
	C87.802727,748.632507 86.612587,780.488586 90.205223,812.438721 
	C90.873528,818.382019 91.877495,824.323608 92.015091,830.282471 
	C92.241058,840.068726 85.983818,846.940002 76.654823,847.926331 
	C67.923622,848.849426 60.081009,843.737244 58.133663,834.729004 
	C56.311882,826.301636 55.187710,817.667419 54.478764,809.064636 
	C50.145966,756.488586 55.075176,704.759827 68.514503,653.731812 
	C85.332130,589.876587 115.960503,533.355408 158.057648,482.798065 
	C161.252090,478.961639 164.449997,475.096924 167.972687,471.571472 
	C175.437088,464.101349 185.802383,463.578003 193.122360,469.754822 
	C199.961655,475.525940 199.800003,487.395782 193.766144,494.933777 
	C179.019501,513.356384 163.975037,531.731384 151.291489,551.559082 
	C139.514557,569.969482 130.638718,590.235718 120.222473,610.404602 
z"/>
<path fill="#050505" opacity="1.000000" stroke="none" 
	d="
M162.037018,692.090576 
	C171.085175,653.594177 186.728165,618.923706 208.722275,587.097961 
	C210.613510,584.361328 212.512009,581.585754 214.747528,579.139343 
	C220.824738,572.488708 230.352448,571.397095 237.311478,576.337036 
	C244.463989,581.414307 246.758835,590.472290 242.753693,598.516663 
	C241.574875,600.884277 239.985291,603.063416 238.453491,605.237000 
	C204.347168,653.631348 189.273087,707.979370 187.936279,766.626587 
	C187.860367,769.956848 188.082001,773.303040 187.842255,776.618530 
	C187.233246,785.040283 181.606201,791.032593 173.574951,792.068726 
	C165.030182,793.171082 156.985657,788.721191 154.454910,780.975098 
	C153.445511,777.885498 153.186218,774.436890 153.181641,771.150940 
	C153.144821,744.750549 155.630341,718.617004 162.037018,692.090576 
z"/>
<path fill="#050505" opacity="1.000000" stroke="none" 
	d="
M2066.636963,767.737061 
	C2066.540039,771.356934 2066.574463,774.032471 2066.321777,776.680786 
	C2065.448242,785.845276 2059.701904,791.648804 2051.134521,792.157715 
	C2042.181152,792.689514 2034.299683,787.289917 2032.457642,778.910950 
	C2031.753906,775.709717 2031.896118,772.295410 2031.870239,768.976562 
	C2031.398560,708.394287 2015.436890,652.655457 1979.817627,603.137573 
	C1974.864868,596.252441 1973.186035,589.374329 1977.528320,581.821106 
	C1981.199951,575.434692 1986.984619,572.763794 1994.322754,573.232849 
	C2000.655273,573.637573 2004.868774,577.367737 2007.831177,582.377563 
	C2017.979370,599.539307 2029.018188,616.300110 2037.638916,634.214050 
	C2057.733643,675.971436 2066.023438,720.608398 2066.636963,767.737061 
z"/>
<path fill="black" style="mix-blend-mode:destination-out" opacity="1.000000" stroke="none" 
	d="
M1335.870117,867.753967 
	C1432.569702,833.806152 1535.019287,888.136841 1561.809570,986.957092 
	C1588.074097,1083.838013 1522.915771,1184.987549 1423.664185,1202.450562 
	C1326.455200,1219.554199 1238.583008,1150.203613 1223.833008,1058.932007 
	C1210.559204,976.796265 1255.142944,902.399414 1326.857666,871.495300 
	C1329.606567,870.310669 1332.363770,869.145386 1335.870117,867.753967 
M1499.953491,987.303650 
	C1481.302979,936.205994 1433.654541,903.519775 1378.513916,904.897583 
	C1292.456177,907.048035 1233.650146,992.516602 1262.571411,1073.756836 
	C1278.942383,1119.743164 1312.088379,1148.634399 1360.203735,1157.150635 
	C1408.454468,1165.690918 1449.493286,1149.752075 1479.945923,1111.447144 
	C1508.998413,1074.903442 1514.642090,1033.209229 1499.953491,987.303650 
z"/>
<path fill="black" style="mix-blend-mode:destination-out" opacity="1.000000" stroke="none" 
	d="
M871.820435,864.002563 
	C913.429504,877.091248 946.374146,900.629517 969.704102,936.819458 
	C1016.787537,1009.856445 1002.528015,1106.516846 936.480957,1163.144043 
	C863.453979,1225.755737 756.471802,1217.396240 694.294067,1144.161377 
	C663.074463,1107.389893 648.648987,1064.886597 652.309509,1016.743103 
	C657.926392,942.868530 712.615417,879.331543 785.069458,862.125427 
	C813.798828,855.302917 842.519897,855.900574 871.820435,864.002563 
M893.208557,917.643799 
	C868.420105,905.873596 842.473938,901.966003 815.444580,906.871582 
	C744.453918,919.755798 701.251099,987.596130 713.763550,1054.738647 
	C724.984680,1114.952637 777.638489,1163.060913 845.182495,1159.082764 
	C906.844482,1155.450806 961.711609,1106.952148 963.751099,1036.219727 
	C965.279236,983.218872 941.250366,943.715637 893.208557,917.643799 
z"/>
<path fill="black" style="mix-blend-mode:destination-out" opacity="1.000000" stroke="none" 
	d="
M1046.180908,1334.296875 
	C1056.611206,1334.300171 1065.335815,1337.171753 1073.560059,1341.927734 
	C1079.024292,1345.087769 1084.452515,1348.384155 1090.179932,1350.999634 
	C1103.634155,1357.144043 1117.225586,1357.391602 1130.604614,1350.609741 
	C1138.012695,1346.854614 1145.136475,1342.498779 1152.687378,1339.072754 
	C1172.974365,1329.868042 1195.557495,1334.556641 1208.759521,1351.144409 
	C1213.185181,1356.704956 1215.886841,1363.637573 1220.223267,1371.472778 
	C1146.042114,1389.709473 1073.957520,1388.975952 1001.767517,1371.620239 
	C1004.748047,1349.482178 1025.316406,1335.250977 1046.180908,1334.296875 
z"/>
<path fill="black" style="mix-blend-mode:destination-out" opacity="1.000000" stroke="none" 
	d="
M1286.421631,1268.517090 
	C1289.483765,1264.470459 1291.556274,1267.123779 1293.387939,1268.752686 
	C1301.597778,1276.053223 1309.956543,1283.217285 1317.756104,1290.940796 
	C1327.637451,1300.725708 1337.029663,1311.004639 1347.582275,1322.065552 
	C1320.745605,1336.488281 1294.269409,1348.332520 1266.171265,1358.427368 
	C1266.171265,1349.682861 1265.402710,1341.480225 1266.326050,1333.472534 
	C1268.465820,1314.913452 1272.777222,1296.786499 1280.175903,1279.539307 
	C1281.738525,1275.896484 1284.031250,1272.566772 1286.421631,1268.517090 
z"/>
<path fill="black" style="mix-blend-mode:destination-out" opacity="1.000000" stroke="none" 
	d="
M926.540039,1268.291504 
	C928.202332,1267.117065 929.283752,1266.384155 931.434082,1264.927002 
	C948.856934,1293.770508 952.882019,1325.228760 954.412598,1358.868896 
	C925.293030,1348.599365 898.884827,1335.772705 872.240234,1321.817017 
	C889.356567,1302.410400 907.293152,1285.206055 926.540039,1268.291504 
z"/>
<path fill="black" style="mix-blend-mode:destination-out" opacity="1.000000" stroke="none" 
	d="
M1184.458862,472.958008 
	C1183.900146,472.639191 1183.348267,472.399658 1182.796265,472.160095 
	C1183.269043,472.063690 1183.741699,471.967285 1184.361816,472.530701 
	C1184.509033,473.190521 1184.465576,473.037323 1184.458862,472.958008 
z"/>
<path fill="black" style="mix-blend-mode:destination-out" opacity="1.000000" stroke="none" 
	d="
M1853.993896,491.985138 
	C1853.664551,492.498505 1853.200317,492.863800 1852.735962,493.229065 
	C1852.700439,492.761017 1852.664917,492.293030 1853.114502,491.678528 
	C1853.599487,491.532074 1853.859131,491.837067 1853.993896,491.985138 
z"/>
<path fill="#030303" opacity="1.000000" stroke="none" 
	d="
M1500.193726,988.057983 
	C1514.642090,1033.209229 1508.998413,1074.903442 1479.945923,1111.447144 
	C1449.493286,1149.752075 1408.454468,1165.690918 1360.203735,1157.150635 
	C1312.088379,1148.634399 1278.942383,1119.743164 1262.571411,1073.756836 
	C1233.650146,992.516602 1292.456177,907.048035 1378.513916,904.897583 
	C1433.654541,903.519775 1481.302979,936.205994 1500.193726,988.057983 
M1341.073242,943.020386 
	C1336.819702,943.671997 1332.389160,943.771790 1328.342773,945.069397 
	C1309.379883,951.150208 1296.726440,970.264343 1297.906372,990.487061 
	C1299.073975,1010.497925 1314.104614,1027.513794 1334.089722,1031.449585 
	C1353.561279,1035.284180 1373.561035,1025.234497 1382.109253,1007.320068 
	C1391.194580,988.280151 1386.391846,966.609314 1370.168457,953.260742 
	C1362.176514,946.684937 1353.009521,943.331726 1341.073242,943.020386 
M1428.764893,1107.410400 
	C1431.725952,1107.793457 1434.694824,1108.550903 1437.646729,1108.490234 
	C1446.930908,1108.299438 1453.726685,1103.597412 1456.953491,1095.147827 
	C1460.271606,1086.459351 1458.818115,1077.911865 1452.020996,1071.105957 
	C1445.635254,1064.711792 1437.945312,1062.427124 1429.155762,1065.739258 
	C1420.172974,1069.124023 1415.075317,1075.792358 1414.291260,1085.212891 
	C1413.453979,1095.270264 1418.108398,1102.463257 1428.764893,1107.410400 
z"/>
<path fill="#030303" opacity="1.000000" stroke="none" 
	d="
M893.904663,917.922485 
	C941.250366,943.715637 965.279236,983.218872 963.751099,1036.219727 
	C961.711609,1106.952148 906.844482,1155.450806 845.182495,1159.082764 
	C777.638489,1163.060913 724.984680,1114.952637 713.763550,1054.738647 
	C701.251099,987.596130 744.453918,919.755798 815.444580,906.871582 
	C842.473938,901.966003 868.420105,905.873596 893.904663,917.922485 
M788.683777,1031.031372 
	C792.647217,1031.360718 796.619934,1032.058716 800.572510,1031.958496 
	C823.212097,1031.384277 840.932495,1013.612244 842.938354,989.689697 
	C844.654907,969.217407 828.363953,948.014954 807.713074,943.844604 
	C785.472046,939.353088 762.961853,952.245972 756.241333,973.325256 
	C748.356384,998.056824 761.324524,1022.128113 788.683777,1031.031372 
M914.271973,1086.974609 
	C914.169495,1085.317139 914.306274,1083.602539 913.926636,1082.011230 
	C910.984985,1069.680664 899.174622,1062.018066 887.677917,1064.886475 
	C875.670898,1067.882202 867.991455,1079.731323 870.504944,1091.383789 
	C873.025574,1103.068970 884.857056,1110.483643 897.181396,1108.101562 
	C906.519470,1106.296509 912.094604,1099.931641 914.271973,1086.974609 
z"/>
<path fill="black" style="mix-blend-mode:destination-out" opacity="1.000000" stroke="none" 
	d="
M1341.883789,943.023682 
	C1353.009521,943.331726 1362.176514,946.684937 1370.168457,953.260742 
	C1386.391846,966.609314 1391.194580,988.280151 1382.109253,1007.320068 
	C1373.561035,1025.234497 1353.561279,1035.284180 1334.089722,1031.449585 
	C1314.104614,1027.513794 1299.073975,1010.497925 1297.906372,990.487061 
	C1296.726440,970.264343 1309.379883,951.150208 1328.342773,945.069397 
	C1332.389160,943.771790 1336.819702,943.671997 1341.883789,943.023682 
z"/>
<path fill="black" style="mix-blend-mode:destination-out" opacity="1.000000" stroke="none" 
	d="
M1428.058105,1107.012695 
	C1418.108398,1102.463257 1413.453979,1095.270264 1414.291260,1085.212891 
	C1415.075317,1075.792358 1420.172974,1069.124023 1429.155762,1065.739258 
	C1437.945312,1062.427124 1445.635254,1064.711792 1452.020996,1071.105957 
	C1458.818115,1077.911865 1460.271606,1086.459351 1456.953491,1095.147827 
	C1453.726685,1103.597412 1446.930908,1108.299438 1437.646729,1108.490234 
	C1434.694824,1108.550903 1431.725952,1107.793457 1428.058105,1107.012695 
z"/>
<path fill="black" style="mix-blend-mode:destination-out" opacity="1.000000" stroke="none" 
	d="
M787.885132,1030.805664 
	C761.324524,1022.128113 748.356384,998.056824 756.241333,973.325256 
	C762.961853,952.245972 785.472046,939.353088 807.713074,943.844604 
	C828.363953,948.014954 844.654907,969.217407 842.938354,989.689697 
	C840.932495,1013.612244 823.212097,1031.384277 800.572510,1031.958496 
	C796.619934,1032.058716 792.647217,1031.360718 787.885132,1030.805664 
z"/>
<path fill="black" style="mix-blend-mode:destination-out" opacity="1.000000" stroke="none" 
	d="
M914.251709,1087.805176 
	C912.094604,1099.931641 906.519470,1106.296509 897.181396,1108.101562 
	C884.857056,1110.483643 873.025574,1103.068970 870.504944,1091.383789 
	C867.991455,1079.731323 875.670898,1067.882202 887.677917,1064.886475 
	C899.174622,1062.018066 910.984985,1069.680664 913.926636,1082.011230 
	C914.306274,1083.602539 914.169495,1085.317139 914.251709,1087.805176 
z"/>
</g></svg>